<?xml version="1.0" encoding="UTF-8" standalone="no"?>
<!-- Created with Inkscape (http://www.inkscape.org/) -->

<svg
   width="105mm"
   height="74mm"
   viewBox="0 0 105 74"
   version="1.1"
   id="svg1"
   xmlns="http://www.w3.org/2000/svg"
   xmlns:svg="http://www.w3.org/2000/svg">
  <defs
     id="defs1" />
  <g
     id="layer1">
    <path
       d="M 2.4708822,36.25644 V 24.892815 h 4.5454502 4.5454506 v 2.272725 2.272725 h 2.272725 2.272725 V 27.16554 24.892815 h 6.818175 6.818175 v 2.272725 2.272725 h -6.818175 -6.818175 v 2.272725 2.272725 h -2.272725 -2.272725 v 6.818175 6.818176 H 7.0163324 2.4708822 Z m 31.8181518,0 V 24.892815 h 13.63635 13.636351 v 2.272725 2.272725 h 2.272725 2.272725 v 9.0909 9.090901 h -4.54545 -4.54545 v -9.090901 -9.0909 h -6.818176 -6.818175 v 9.0909 9.090901 h -4.54545 -4.54545 z m 40.909052,-9.0909 v -2.272725 h 13.63635 13.636354 V 36.25644 47.620066 h -2.27273 -2.272723 v 2.272725 2.272725 H 86.561711 75.198086 v -2.272725 -2.272725 h 9.0909 9.0909 v -2.272725 -2.272726 h -9.0909 -9.0909 V 40.80189 38.529165 H 72.92536 70.652635 v -4.54545 -4.54545 h 2.272725 2.272726 z m 18.1818,6.818175 v -4.54545 h -6.818175 -6.818175 v 4.54545 4.54545 h 6.818175 6.818175 z"
       id="text2"
       style="font-size:36.3636px;font-family:'Press Start 2P';-inkscape-font-specification:'Press Start 2P, Normal';fill:#98c2ed;stroke-width:0.272727"
       aria-label="rng" />
  </g>
</svg>
