<?xml version="1.0" encoding="UTF-8" standalone="no"?>
<!DOCTYPE svg PUBLIC "-//W3C//DTD SVG 1.1//EN" "http://www.w3.org/Graphics/SVG/1.1/DTD/svg11.dtd">
<!-- Created with Vectornator (http://vectornator.io/) -->
<svg stroke-miterlimit="10" style="fill-rule:nonzero;clip-rule:evenodd;stroke-linecap:round;stroke-linejoin:round;" version="1.1" viewBox="0 0 841.995 595.35" xml:space="preserve" xmlns="http://www.w3.org/2000/svg" xmlns:xlink="http://www.w3.org/1999/xlink">
<defs>
<filter color-interpolation-filters="sRGB" filterUnits="userSpaceOnUse" height="489.907" id="Filter" width="145.983" x="-5.51299" y="32.3123">
<feDropShadow dx="-3.67321e-05" dy="10" flood-color="#c5eaff" flood-opacity="1" in="SourceGraphic" result="Shadow" stdDeviation="5"/>
</filter>
<filter color-interpolation-filters="sRGB" filterUnits="userSpaceOnUse" height="485.428" id="Filter_2" width="262.956" x="38.1239" y="3.34057">
<feDropShadow dx="-3.67321e-05" dy="10" flood-color="#c5eaff" flood-opacity="1" in="SourceGraphic" result="Shadow" stdDeviation="5"/>
</filter>
<filter color-interpolation-filters="sRGB" filterUnits="userSpaceOnUse" height="451.024" id="Filter_3" width="323.098" x="238.532" y="47.5937">
<feDropShadow dx="-3.67321e-05" dy="10" flood-color="#c5eaff" flood-opacity="1" in="SourceGraphic" result="Shadow" stdDeviation="5"/>
</filter>
<filter color-interpolation-filters="sRGB" filterUnits="userSpaceOnUse" height="574.221" id="Filter_4" width="321.658" x="524.267" y="32.808">
<feDropShadow dx="-3.67321e-05" dy="10" flood-color="#c5eaff" flood-opacity="1" in="SourceGraphic" result="Shadow" stdDeviation="5"/>
</filter>
</defs>
<clipPath id="ArtboardFrame">
<rect height="595.35" width="841.995" x="0" y="0"/>
</clipPath>
<g clip-path="url(#ArtboardFrame)" id="Layer-1">
<path d="M92.2188 32.3125C91.7988 32.3179 91.5138 32.437 91.3438 32.6562C81.9524 56.5772 73.7051 80.8949 66.5 105.562C48.3179 167.811 36.3185 231.637 24.5625 295.344C19.8116 321.089 14.8239 346.798 10.9062 372.688C5.90635 405.729 2.79473 439.192 5.46875 472.594C4.15181 474.351 11.8104 482.326 22.5938 490.406C33.3771 498.487 43.1831 503.633 44.5 501.875C42.0305 470.997 44.5784 440.035 48.9375 409.438C52.9561 381.231 58.4219 353.262 63.5938 325.25C75.3446 261.606 87.3291 197.843 105.5 135.656C112.694 111.035 120.936 86.7507 130.312 62.875C131.673 61.1208 124.045 52.9415 113.281 44.5938C103.863 37.2895 95.1585 32.2745 92.2188 32.3125Z" fill="#006a6a" fill-rule="nonzero" filter="url(#Filter)" stroke="none"/>
<path d="M176.719 3.34375C167.991 3.39335 159.285 4.36642 150.781 6.34375C130.525 11.0536 112.307 21.5122 96.125 34.3438C88.3989 40.4702 81.1202 47.1563 74 53.9688C72.6177 55.7085 80.1695 63.9871 90.8438 72.4688C101.518 80.9504 111.274 86.4272 112.656 84.6875C122.861 74.9223 133.415 65.4706 145.062 57.4375C159.372 47.5684 175.257 40.0618 192.375 36.6875C201.252 34.9377 210.339 34.3032 219.375 34.6562C225.705 34.9036 232.075 35.7506 238.031 37.875C238.231 38.1712 238.463 38.4502 238.656 38.75C241.039 42.4402 242.996 46.4061 244.5 50.5312C247.507 58.7787 248.611 67.6941 247.406 76.4062C246.73 81.2954 245.277 86.0615 243.5 90.6562C239.533 100.916 233.852 110.466 227.625 119.5C219.748 130.927 210.869 141.654 201.562 151.938C188.13 166.781 173.706 180.721 158.844 194.125C142.614 208.762 125.833 222.773 108.531 236.125C104.16 239.499 99.7266 242.849 95.2812 246.125C92.4366 248.221 89.6034 250.299 86.6562 252.25C79.9761 256.673 72.9007 260.497 65.7812 264.156C64.5795 264.774 63.4294 265.324 62.125 265.688C59.1792 266.507 56.0799 266.693 53.1875 267.719C51.2885 268.392 49.2961 269.509 48.3438 271.375C48.0128 272.024 48.0735 272.817 48.4062 273.469C48.7853 274.211 49.1025 275.002 49.6562 275.625C52.5107 278.839 55.3229 282.148 58.5938 284.938C64.3703 289.863 70.5142 294.313 76.7188 298.688C78.6577 300.055 80.8563 301.045 82.9688 302.125C83.6073 302.451 84.2911 302.672 84.9688 302.906C85.0502 302.934 85.137 302.912 85.2188 302.938C90.3174 311.825 94.1708 321.483 98.4375 330.75C101.803 338.06 105.516 345.202 109.281 352.312C113.225 359.76 117.264 367.144 121.594 374.375C128.388 385.723 135.874 396.704 144.5 406.75C155.726 419.824 168.754 431.331 182.688 441.438C196.444 451.416 211.354 460.037 227.844 464.531C248.415 470.138 269.96 469.453 290.906 466.656C292.309 464.969 285.071 456.604 274.719 448C264.367 439.396 254.84 433.782 253.438 435.469C235.283 437.892 216.595 438.839 198.562 434.969C192.135 433.589 185.617 431.601 179.719 428.562C171.933 420.221 165.595 410.531 159.688 400.812C155.315 393.62 151.282 386.218 147.344 378.781C144.139 372.729 140.974 366.668 138.062 360.469C132.617 348.874 127.901 336.877 121.219 325.906C115.856 317.102 109.271 309.194 102.031 301.875C100.477 300.304 98.7403 298.919 97.125 297.406C98.6098 297.116 100.109 296.808 101.531 296.281C102.809 295.808 104.011 295.124 105.219 294.5C107.105 293.525 108.975 292.538 110.844 291.531C117.198 288.107 123.414 284.432 129.281 280.219C148.671 266.296 167.274 251.218 185.312 235.594C206.215 217.489 226.434 198.394 244.688 177.594C254.925 165.928 264.648 153.677 272.688 140.375C278.041 131.517 282.745 122.091 285.344 112.031C286.421 107.862 286.939 103.554 286.969 99.25C286.991 96.1341 286.736 93.0451 286.25 89.9688C282.555 66.5789 265.488 48.4021 247.938 33.875C241.118 28.2301 233.964 22.966 226.469 18.25C219.68 13.9786 212.552 10.1627 204.969 7.5C200.805 6.03813 196.489 4.91456 192.125 4.25C187.042 3.47599 181.853 3.31457 176.719 3.34375Z" fill="#006a6a" fill-rule="nonzero" filter="url(#Filter_2)" stroke="none"/>
<path d="M513.594 47.5938C513.174 47.5964 512.859 47.6881 512.688 47.9062C507.957 54.6543 503.438 61.5374 499.281 68.6562C476.529 107.623 462.499 151.035 450.406 194.281C445.06 213.4 440.212 232.654 435.25 251.875C432.187 263.742 428.916 275.572 425.969 287.469C421.658 304.873 418.029 322.434 413.875 339.875C412.609 345.189 411.323 350.506 409.906 355.781C408.314 361.709 406.607 367.602 404.906 373.5C404.857 372.749 404.798 372.001 404.75 371.25C401.567 321.483 400.86 271.592 402.469 221.75C402.671 215.484 402.781 209.189 403.281 202.938C404.504 187.663 406.565 172.476 406.625 157.125C406.654 149.636 406.403 141.807 404.188 134.594C403.778 133.26 403.335 131.819 402.656 130.594C402.222 129.81 401.879 128.951 401.25 128.312C396.382 123.373 391.673 118.189 386.219 113.906C380.286 109.248 373.677 105.492 367.219 101.594C366.428 101.116 365.466 101.036 364.562 100.844C364.284 100.784 364.002 100.813 363.719 100.844C362.01 101.028 360.34 103.285 359.312 104.5C356.412 107.929 353.438 111.277 350.781 114.906C341.209 127.984 333.786 142.572 327.438 157.438C325.865 161.12 324.218 164.793 322.781 168.531C315.883 186.477 309.368 204.545 303.094 222.719C296.058 243.099 289.321 263.58 282.219 283.938C270.905 316.366 258.699 348.505 248.688 381.375C247.332 383.131 254.976 391.278 265.75 399.594C276.524 407.91 286.363 413.225 287.719 411.469C297.723 378.618 309.913 346.535 321.219 314.125C333.767 278.153 345.235 241.76 358.906 206.188C360.099 203.085 361.22 199.955 362.469 196.875C362.741 196.204 363.029 195.543 363.312 194.875C363.117 201.199 362.933 207.518 362.812 213.844C362.264 242.681 362.494 271.552 363.562 300.375C364.23 318.389 365.306 336.36 366.531 354.344C368.146 378.038 368.963 401.868 373.031 425.312C373.545 428.271 374.289 431.226 374.562 434.219C374.832 437.171 374.902 440.144 375.219 443.094C375.394 444.723 375.69 446.405 376.375 447.906C376.853 448.953 377.592 450.135 378.281 451C379.276 452.248 380.265 453.509 381.406 454.625C384.596 457.744 387.772 460.894 391.25 463.688C395.946 467.459 400.861 470.976 405.875 474.312C407.908 475.665 410.144 476.689 412.344 477.75C413.013 478.073 413.753 478.239 414.469 478.438C415.145 478.625 415.904 478.681 416.594 478.531C419.064 477.994 421.337 474.787 422.562 472.875C425.96 467.574 428.115 461.45 430.062 455.5C432.561 447.868 434.579 440.09 436.438 432.281C437.478 427.909 438.37 423.468 439.531 419.125C443.384 404.722 447.834 390.51 451.406 376.031C456.205 356.577 460.152 336.919 464.969 317.469C467.914 305.577 471.188 293.769 474.25 281.906C479.424 261.859 484.519 241.785 490.094 221.844C496.268 199.76 503.082 177.84 511.25 156.406C518.771 136.672 527.468 117.316 538.125 99.0625C542.263 91.9752 546.76 85.1245 551.469 78.4062C552.841 76.6607 545.273 68.419 534.562 60C525.191 52.6333 516.534 47.575 513.594 47.5938Z" fill="#006a6a" fill-rule="nonzero" filter="url(#Filter_3)" stroke="none"/>
<path d="M739.188 32.8125C735.008 32.745 730.82 33.4363 726.781 34.4688C720.497 36.0752 714.453 38.5534 708.625 41.375C697.783 46.6239 687.548 53.1227 677.719 60.0625C666.075 68.2826 654.906 77.2196 644.281 86.7188C640.117 90.4422 635.979 94.2342 632.156 98.3125C629.932 100.685 627.822 103.177 625.719 105.656C622.157 109.854 618.705 114.14 615.344 118.5C607.512 128.659 600.216 139.227 593.5 150.156C560.009 204.658 540.44 267.438 535.375 331.125C533.834 350.495 533.61 370.094 536.594 389.344C538.649 402.601 542.293 415.876 549.094 427.531C554.543 436.87 562.062 444.778 570.125 451.906C574.892 456.121 579.871 460.09 585.031 463.812C589.106 466.752 593.287 469.546 597.656 472.031C605.467 476.474 613.695 479.552 622.781 478.562C631.222 477.643 639.027 473.692 645.938 468.938C658.565 460.25 668.84 448.701 679.156 437.5C699.432 415.486 718.343 392.288 736.25 368.312C738.245 365.641 740.124 362.877 742.094 360.188C736.288 385.06 731.204 410.116 727.25 435.344C720.929 475.67 717.514 516.316 716.031 557.094C714.7 558.852 722.371 566.893 733.156 575.062C743.942 583.232 753.762 588.445 755.094 586.688C755.765 568.241 756.753 549.8 758.312 531.406C760.457 506.105 763.593 480.889 767.781 455.844C773.526 421.488 781.179 387.448 790.094 353.781C793.17 342.163 796.491 330.622 799.781 319.062C802.329 310.113 804.892 301.159 807.469 292.219C808.388 289.029 809.296 285.845 810.219 282.656C810.499 281.687 810.782 280.719 811.062 279.75C811.157 279.422 811.249 279.078 811.344 278.75C811.372 278.651 811.409 278.567 811.438 278.469C811.45 278.426 811.479 278.3 811.469 278.344C811.46 278.382 811.518 278.256 811.531 278.219C811.551 278.165 811.543 278.117 811.562 278.062C811.624 277.896 811.688 277.729 811.75 277.562C811.894 277.173 812.043 276.796 812.188 276.406C812.549 275.432 812.92 274.443 813.281 273.469C814.34 270.613 815.409 267.762 816.469 264.906C819.567 256.561 822.638 248.203 825.781 239.875C826.122 238.973 826.652 238.122 827.062 237.25C827.786 235.713 828.485 234.154 829.156 232.594C831.6 226.913 833.796 221.036 835.062 214.969C835.857 211.162 836.418 206.986 835.281 203.188C834.229 199.673 831.713 196.709 829.25 194.094C827.981 192.746 826.669 191.415 825.312 190.156C820.955 186.113 816.349 182.337 811.562 178.812C809.385 177.209 807.145 175.688 804.875 174.219C800.004 171.066 794.654 168.264 788.938 167.031C779.322 164.957 769.22 167.368 760.094 170.438C754.329 172.376 748.72 174.764 743.188 177.281C739.052 179.162 734.995 181.177 730.938 183.219C721.746 186.392 712.724 190.119 703.875 194.062C698.406 196.499 692.978 199.037 687.594 201.656C684.65 203.089 681.761 204.679 678.75 205.969C676.094 207.106 673.372 208.05 670.656 209.031C669.915 209.299 669.084 209.603 668.344 209.875C667.681 210.118 666.849 210.402 666.188 210.656C665.864 210.78 665.54 210.903 665.219 211.031C664.143 211.461 662.803 211.911 661.906 212.688C661.672 212.89 661.332 213.321 661.469 213.656C661.925 214.779 662.192 216.097 663.094 216.906C672.285 225.154 681.745 233.123 691.531 240.656C693.45 242.133 695.885 242.85 698.094 243.844C699.89 244.652 702.908 244.19 704.75 243.906C709.475 243.178 714.027 241.546 718.438 239.75C726.597 236.428 734.457 232.342 742.25 228.25C751.149 223.577 760.025 218.838 769 214.312C769.779 214.042 770.531 213.7 771.312 213.438C772.852 212.92 774.416 212.482 775.969 212C773.997 216.289 771.705 220.455 769.469 224.594C765.885 231.227 762.552 237.979 758.875 244.562C745.421 268.648 730.354 291.798 714.469 314.344C698.355 337.214 681.381 359.547 663.344 380.938C654.846 391.015 646.028 400.781 637.125 410.5C628.249 420.189 619.11 429.902 608.312 437.5C601.725 442.136 594.271 446.181 586.188 447.281C585.42 447.386 584.648 447.392 583.875 447.438C581.077 441.303 579.025 434.848 577.531 428.281C575.125 417.704 573.988 406.859 573.562 396.031C573.048 382.95 573.568 369.811 574.781 356.781C576.082 342.806 577.978 328.911 580.625 315.125C589.73 267.706 607.077 221.76 632.375 180.594C640.023 168.149 648.397 156.174 657.5 144.75C661.953 139.161 666.495 133.543 671.438 128.375C675.804 123.809 680.504 119.54 685.25 115.375C696.418 105.572 708.151 96.4053 720.406 88C730.357 81.175 740.818 74.8544 751.906 70.0625C757.849 67.4945 764.063 65.2989 770.5 64.4062C771.892 64.2132 773.289 64.1918 774.688 64.1562C774.966 64.3572 775.186 64.5489 775.469 64.75C786.106 72.3006 795.707 77.0149 796.938 75.2812C794.825 70.5367 791.752 66.4043 788.156 62.6562C786.629 61.0639 785.095 59.4911 783.469 58C780.984 55.7222 778.427 53.4715 775.812 51.3438C773.042 49.0893 770.21 46.9325 767.312 44.8438C765.072 43.2284 762.742 41.7249 760.406 40.25C755.204 36.9642 749.499 34.0577 743.344 33.1562C741.959 32.9535 740.581 32.835 739.188 32.8125Z" fill="#006a6a" fill-rule="nonzero" filter="url(#Filter_4)" stroke="none"/>
</g>
</svg>
